<mxfile host="app.diagrams.net" modified="2021-10-23T16:57:20.879Z" agent="5.0 (Macintosh; Intel Mac OS X 10_15_7) AppleWebKit/537.36 (KHTML, like Gecko) Chrome/92.0.4515.107 Safari/537.36" etag="m8ooZAzack0dWgGdoty8" version="15.5.7" type="github">
  <diagram id="Xz1zd2Fq9srYaQUPKxiW" name="Page-1">
    <mxGraphModel dx="1219" dy="1072" grid="1" gridSize="10" guides="1" tooltips="1" connect="1" arrows="1" fold="1" page="1" pageScale="1" pageWidth="827" pageHeight="1169" math="0" shadow="0">
      <root>
        <mxCell id="0" />
        <mxCell id="1" parent="0" />
        <mxCell id="qSjlCEyF0LNPJPu73GT9-17" value="" style="rounded=0;whiteSpace=wrap;html=1;glass=0;dashed=1;fillColor=#D6DBDF;opacity=50;shadow=1;" parent="1" vertex="1">
          <mxGeometry x="38" y="400" width="342" height="100" as="geometry" />
        </mxCell>
        <mxCell id="qSjlCEyF0LNPJPu73GT9-28" value="" style="rounded=0;whiteSpace=wrap;html=1;glass=0;dashed=1;fillColor=#2E4053;sketch=0;shadow=1;opacity=80;" parent="1" vertex="1">
          <mxGeometry x="428" y="400" width="362" height="100" as="geometry" />
        </mxCell>
        <mxCell id="qSjlCEyF0LNPJPu73GT9-1" value="&lt;font face=&quot;Times New Roman&quot; style=&quot;font-size: 16px&quot;&gt;ignorant&lt;/font&gt;" style="rounded=1;whiteSpace=wrap;html=1;fillColor=#d5e8d4;strokeColor=#82b366;" parent="1" vertex="1">
          <mxGeometry x="359" y="270" width="100" height="50" as="geometry" />
        </mxCell>
        <mxCell id="Se4S-JmLy9C7secBmp55-51" style="edgeStyle=orthogonalEdgeStyle;rounded=0;orthogonalLoop=1;jettySize=auto;html=1;exitX=0.5;exitY=0;exitDx=0;exitDy=0;entryX=1;entryY=0.5;entryDx=0;entryDy=0;startArrow=classic;startFill=1;endArrow=none;endFill=0;strokeColor=#000000;" parent="1" source="qSjlCEyF0LNPJPu73GT9-3" target="Se4S-JmLy9C7secBmp55-1" edge="1">
          <mxGeometry relative="1" as="geometry" />
        </mxCell>
        <mxCell id="qSjlCEyF0LNPJPu73GT9-3" value="&lt;font face=&quot;Times New Roman&quot; size=&quot;3&quot;&gt;contributor +&lt;br&gt;&lt;/font&gt;" style="rounded=1;whiteSpace=wrap;html=1;fillColor=#ffe6cc;strokeColor=#d79b00;" parent="1" vertex="1">
          <mxGeometry x="258" y="430" width="100" height="50" as="geometry" />
        </mxCell>
        <mxCell id="Se4S-JmLy9C7secBmp55-52" style="edgeStyle=orthogonalEdgeStyle;rounded=0;orthogonalLoop=1;jettySize=auto;html=1;exitX=0.5;exitY=0;exitDx=0;exitDy=0;entryX=0;entryY=0.5;entryDx=0;entryDy=0;startArrow=classic;startFill=1;endArrow=none;endFill=0;strokeColor=#000000;" parent="1" source="qSjlCEyF0LNPJPu73GT9-4" target="Se4S-JmLy9C7secBmp55-1" edge="1">
          <mxGeometry relative="1" as="geometry" />
        </mxCell>
        <mxCell id="Se4S-JmLy9C7secBmp55-63" style="edgeStyle=orthogonalEdgeStyle;rounded=0;orthogonalLoop=1;jettySize=auto;html=1;exitX=0.25;exitY=1;exitDx=0;exitDy=0;entryX=0.75;entryY=1;entryDx=0;entryDy=0;startArrow=classic;startFill=1;endArrow=none;endFill=0;strokeColor=#000000;" parent="1" source="qSjlCEyF0LNPJPu73GT9-4" target="qSjlCEyF0LNPJPu73GT9-3" edge="1">
          <mxGeometry relative="1" as="geometry">
            <Array as="points">
              <mxPoint x="83" y="580" />
              <mxPoint x="333" y="580" />
            </Array>
          </mxGeometry>
        </mxCell>
        <mxCell id="qSjlCEyF0LNPJPu73GT9-4" value="&lt;font face=&quot;Times New Roman&quot; size=&quot;3&quot;&gt;spreader +&lt;br&gt;&lt;/font&gt;" style="rounded=1;whiteSpace=wrap;html=1;fillColor=#f8cecc;strokeColor=#b85450;" parent="1" vertex="1">
          <mxGeometry x="58" y="430" width="100" height="50" as="geometry" />
        </mxCell>
        <mxCell id="Se4S-JmLy9C7secBmp55-50" style="edgeStyle=orthogonalEdgeStyle;rounded=0;orthogonalLoop=1;jettySize=auto;html=1;exitX=1;exitY=0.5;exitDx=0;exitDy=0;entryX=0.5;entryY=1;entryDx=0;entryDy=0;startArrow=classic;startFill=1;endArrow=none;endFill=0;strokeColor=#000000;" parent="1" source="qSjlCEyF0LNPJPu73GT9-34" target="qSjlCEyF0LNPJPu73GT9-3" edge="1">
          <mxGeometry relative="1" as="geometry" />
        </mxCell>
        <mxCell id="Se4S-JmLy9C7secBmp55-53" style="edgeStyle=orthogonalEdgeStyle;rounded=0;orthogonalLoop=1;jettySize=auto;html=1;exitX=0;exitY=0.5;exitDx=0;exitDy=0;entryX=0.5;entryY=1;entryDx=0;entryDy=0;startArrow=classic;startFill=1;endArrow=none;endFill=0;strokeColor=#000000;" parent="1" source="qSjlCEyF0LNPJPu73GT9-34" target="qSjlCEyF0LNPJPu73GT9-4" edge="1">
          <mxGeometry relative="1" as="geometry" />
        </mxCell>
        <mxCell id="Se4S-JmLy9C7secBmp55-57" style="edgeStyle=orthogonalEdgeStyle;rounded=0;orthogonalLoop=1;jettySize=auto;html=1;exitX=0.5;exitY=0;exitDx=0;exitDy=0;entryX=0.5;entryY=1;entryDx=0;entryDy=0;startArrow=classic;startFill=1;endArrow=none;endFill=0;strokeColor=#000000;" parent="1" source="qSjlCEyF0LNPJPu73GT9-34" target="Se4S-JmLy9C7secBmp55-1" edge="1">
          <mxGeometry relative="1" as="geometry" />
        </mxCell>
        <mxCell id="qSjlCEyF0LNPJPu73GT9-34" value="&lt;font face=&quot;Times New Roman&quot; style=&quot;font-size: 16px&quot;&gt;stifler +&lt;/font&gt;" style="rounded=1;whiteSpace=wrap;html=1;fillColor=#dae8fc;strokeColor=#6c8ebf;" parent="1" vertex="1">
          <mxGeometry x="158" y="520" width="100" height="50" as="geometry" />
        </mxCell>
        <mxCell id="Se4S-JmLy9C7secBmp55-48" style="edgeStyle=orthogonalEdgeStyle;rounded=0;orthogonalLoop=1;jettySize=auto;html=1;exitX=0;exitY=0.5;exitDx=0;exitDy=0;entryX=0.5;entryY=1;entryDx=0;entryDy=0;startArrow=classic;startFill=1;endArrow=none;endFill=0;strokeColor=#000000;" parent="1" source="qSjlCEyF0LNPJPu73GT9-35" target="Se4S-JmLy9C7secBmp55-40" edge="1">
          <mxGeometry relative="1" as="geometry" />
        </mxCell>
        <mxCell id="Se4S-JmLy9C7secBmp55-49" style="edgeStyle=orthogonalEdgeStyle;rounded=0;orthogonalLoop=1;jettySize=auto;html=1;exitX=1;exitY=0.5;exitDx=0;exitDy=0;entryX=0.5;entryY=1;entryDx=0;entryDy=0;startArrow=classic;startFill=1;endArrow=none;endFill=0;strokeColor=#000000;" parent="1" source="qSjlCEyF0LNPJPu73GT9-35" target="Se4S-JmLy9C7secBmp55-39" edge="1">
          <mxGeometry relative="1" as="geometry" />
        </mxCell>
        <mxCell id="Se4S-JmLy9C7secBmp55-58" style="edgeStyle=orthogonalEdgeStyle;rounded=0;orthogonalLoop=1;jettySize=auto;html=1;exitX=0.5;exitY=0;exitDx=0;exitDy=0;entryX=0.5;entryY=1;entryDx=0;entryDy=0;startArrow=classic;startFill=1;endArrow=none;endFill=0;strokeColor=#000000;labelBackgroundColor=#000000;" parent="1" source="qSjlCEyF0LNPJPu73GT9-35" target="Se4S-JmLy9C7secBmp55-42" edge="1">
          <mxGeometry relative="1" as="geometry" />
        </mxCell>
        <mxCell id="qSjlCEyF0LNPJPu73GT9-35" value="&lt;font face=&quot;Times New Roman&quot; style=&quot;font-size: 16px&quot;&gt;stifler -&lt;/font&gt;" style="rounded=1;whiteSpace=wrap;html=1;fillColor=#e1d5e7;strokeColor=#9673a6;" parent="1" vertex="1">
          <mxGeometry x="558" y="520" width="100" height="50" as="geometry" />
        </mxCell>
        <mxCell id="Se4S-JmLy9C7secBmp55-54" style="edgeStyle=orthogonalEdgeStyle;rounded=0;orthogonalLoop=1;jettySize=auto;html=1;exitX=0.5;exitY=0;exitDx=0;exitDy=0;entryX=0;entryY=0.5;entryDx=0;entryDy=0;startArrow=classic;startFill=1;endArrow=none;endFill=0;strokeColor=#000000;" parent="1" source="Se4S-JmLy9C7secBmp55-1" target="qSjlCEyF0LNPJPu73GT9-1" edge="1">
          <mxGeometry relative="1" as="geometry" />
        </mxCell>
        <mxCell id="Se4S-JmLy9C7secBmp55-1" value="&lt;font face=&quot;Times New Roman&quot; size=&quot;3&quot;&gt;browser +&lt;br&gt;&lt;/font&gt;" style="rounded=1;whiteSpace=wrap;html=1;fillColor=none;strokeColor=default;sketch=0;shadow=0;glass=0;fontColor=#333333;gradientColor=#ffffff;dashed=1;" parent="1" vertex="1">
          <mxGeometry x="158" y="340" width="100" height="50" as="geometry" />
        </mxCell>
        <mxCell id="Se4S-JmLy9C7secBmp55-36" value="" style="endArrow=none;html=1;rounded=0;strokeColor=#FFFFFF;" parent="1" edge="1">
          <mxGeometry width="50" height="50" relative="1" as="geometry">
            <mxPoint x="100" y="690" as="sourcePoint" />
            <mxPoint x="150" y="640" as="targetPoint" />
          </mxGeometry>
        </mxCell>
        <mxCell id="Se4S-JmLy9C7secBmp55-47" style="edgeStyle=orthogonalEdgeStyle;rounded=0;orthogonalLoop=1;jettySize=auto;html=1;exitX=0.5;exitY=0;exitDx=0;exitDy=0;entryX=1;entryY=0.5;entryDx=0;entryDy=0;startArrow=classic;startFill=1;endArrow=none;endFill=0;strokeColor=#FFFFFF;" parent="1" source="Se4S-JmLy9C7secBmp55-39" target="Se4S-JmLy9C7secBmp55-42" edge="1">
          <mxGeometry relative="1" as="geometry" />
        </mxCell>
        <mxCell id="Se4S-JmLy9C7secBmp55-64" style="edgeStyle=orthogonalEdgeStyle;rounded=0;orthogonalLoop=1;jettySize=auto;html=1;exitX=0.75;exitY=1;exitDx=0;exitDy=0;entryX=0.25;entryY=1;entryDx=0;entryDy=0;startArrow=classic;startFill=1;endArrow=none;endFill=0;strokeColor=#000000;" parent="1" source="Se4S-JmLy9C7secBmp55-39" target="Se4S-JmLy9C7secBmp55-40" edge="1">
          <mxGeometry relative="1" as="geometry">
            <Array as="points">
              <mxPoint x="733" y="580" />
              <mxPoint x="483" y="580" />
            </Array>
          </mxGeometry>
        </mxCell>
        <mxCell id="Se4S-JmLy9C7secBmp55-39" value="&lt;font face=&quot;Times New Roman&quot; size=&quot;3&quot;&gt;spreader -&lt;br&gt;&lt;/font&gt;" style="rounded=1;whiteSpace=wrap;html=1;fillColor=#f8cecc;strokeColor=#b85450;" parent="1" vertex="1">
          <mxGeometry x="658" y="430" width="100" height="50" as="geometry" />
        </mxCell>
        <mxCell id="Se4S-JmLy9C7secBmp55-46" style="edgeStyle=orthogonalEdgeStyle;rounded=0;orthogonalLoop=1;jettySize=auto;html=1;exitX=0.5;exitY=0;exitDx=0;exitDy=0;entryX=0;entryY=0.5;entryDx=0;entryDy=0;startArrow=classic;startFill=1;endArrow=none;endFill=0;strokeColor=#FFFFFF;" parent="1" source="Se4S-JmLy9C7secBmp55-40" target="Se4S-JmLy9C7secBmp55-42" edge="1">
          <mxGeometry relative="1" as="geometry" />
        </mxCell>
        <mxCell id="Se4S-JmLy9C7secBmp55-40" value="&lt;font face=&quot;Times New Roman&quot; size=&quot;3&quot;&gt;contributor -&lt;br&gt;&lt;/font&gt;" style="rounded=1;whiteSpace=wrap;html=1;fillColor=#ffe6cc;strokeColor=#d79b00;" parent="1" vertex="1">
          <mxGeometry x="458" y="430" width="100" height="50" as="geometry" />
        </mxCell>
        <mxCell id="Se4S-JmLy9C7secBmp55-55" style="edgeStyle=orthogonalEdgeStyle;rounded=0;orthogonalLoop=1;jettySize=auto;html=1;entryX=1;entryY=0.5;entryDx=0;entryDy=0;startArrow=classic;startFill=1;endArrow=none;endFill=0;strokeColor=#000000;exitX=0.5;exitY=0;exitDx=0;exitDy=0;" parent="1" source="Se4S-JmLy9C7secBmp55-42" target="qSjlCEyF0LNPJPu73GT9-1" edge="1">
          <mxGeometry relative="1" as="geometry">
            <mxPoint x="620" y="330" as="sourcePoint" />
          </mxGeometry>
        </mxCell>
        <mxCell id="Se4S-JmLy9C7secBmp55-42" value="&lt;font face=&quot;Times New Roman&quot; size=&quot;3&quot;&gt;&lt;font color=&quot;#000000&quot;&gt;browser -&lt;/font&gt;&lt;br&gt;&lt;/font&gt;" style="rounded=1;whiteSpace=wrap;html=1;fillColor=none;strokeColor=#000000;fontColor=#333333;gradientColor=#ffffff;dashed=1;" parent="1" vertex="1">
          <mxGeometry x="558" y="340" width="100" height="50" as="geometry" />
        </mxCell>
        <mxCell id="Se4S-JmLy9C7secBmp55-77" value="Positive Belief" style="text;html=1;strokeColor=none;fillColor=none;align=center;verticalAlign=middle;whiteSpace=wrap;rounded=0;fontFamily=Times New Roman;fontSize=16;" parent="1" vertex="1">
          <mxGeometry x="127" y="600" width="162" height="30" as="geometry" />
        </mxCell>
        <mxCell id="Se4S-JmLy9C7secBmp55-78" value="Negative Belief" style="text;html=1;strokeColor=none;fillColor=none;align=center;verticalAlign=middle;whiteSpace=wrap;rounded=0;fontFamily=Times New Roman;fontSize=16;" parent="1" vertex="1">
          <mxGeometry x="533" y="600" width="150" height="30" as="geometry" />
        </mxCell>
        <mxCell id="Se4S-JmLy9C7secBmp55-81" value="α" style="text;html=1;strokeColor=none;fillColor=none;align=center;verticalAlign=middle;whiteSpace=wrap;rounded=0;fontFamily=Times New Roman;fontSize=16;" parent="1" vertex="1">
          <mxGeometry x="58" y="400" width="60" height="30" as="geometry" />
        </mxCell>
        <mxCell id="Se4S-JmLy9C7secBmp55-82" value="β" style="text;html=1;strokeColor=none;fillColor=none;align=center;verticalAlign=middle;whiteSpace=wrap;rounded=0;fontFamily=Times New Roman;fontSize=16;" parent="1" vertex="1">
          <mxGeometry x="258" y="400" width="60" height="30" as="geometry" />
        </mxCell>
        <mxCell id="Se4S-JmLy9C7secBmp55-83" value="γ" style="text;html=1;strokeColor=none;fillColor=none;align=center;verticalAlign=middle;whiteSpace=wrap;rounded=0;fontFamily=Times New Roman;fontSize=16;" parent="1" vertex="1">
          <mxGeometry x="189" y="400" width="60" height="30" as="geometry" />
        </mxCell>
        <mxCell id="Se4S-JmLy9C7secBmp55-84" value="α" style="text;html=1;strokeColor=none;fillColor=none;align=center;verticalAlign=middle;whiteSpace=wrap;rounded=0;fontFamily=Times New Roman;fontSize=16;fontColor=#FFFFFF;" parent="1" vertex="1">
          <mxGeometry x="709" y="400" width="60" height="30" as="geometry" />
        </mxCell>
        <mxCell id="Se4S-JmLy9C7secBmp55-85" value="β" style="text;html=1;strokeColor=none;fillColor=none;align=center;verticalAlign=middle;whiteSpace=wrap;rounded=0;fontFamily=Times New Roman;fontSize=16;fontColor=#FFFFFF;" parent="1" vertex="1">
          <mxGeometry x="510" y="400" width="60" height="30" as="geometry" />
        </mxCell>
        <mxCell id="Se4S-JmLy9C7secBmp55-86" value="γ" style="text;html=1;strokeColor=none;fillColor=none;align=center;verticalAlign=middle;whiteSpace=wrap;rounded=0;fontFamily=Times New Roman;fontSize=16;fontColor=#FFFFFF;" parent="1" vertex="1">
          <mxGeometry x="610" y="400" width="60" height="30" as="geometry" />
        </mxCell>
        <mxCell id="Se4S-JmLy9C7secBmp55-89" value="δ2" style="text;html=1;strokeColor=none;fillColor=none;align=center;verticalAlign=middle;whiteSpace=wrap;rounded=0;fontFamily=Times New Roman;fontSize=16;" parent="1" vertex="1">
          <mxGeometry x="378" y="320" width="60" height="30" as="geometry" />
        </mxCell>
        <mxCell id="Se4S-JmLy9C7secBmp55-90" value="δ1" style="text;html=1;strokeColor=none;fillColor=none;align=center;verticalAlign=middle;whiteSpace=wrap;rounded=0;fontFamily=Times New Roman;fontSize=16;" parent="1" vertex="1">
          <mxGeometry x="378" y="370" width="60" height="30" as="geometry" />
        </mxCell>
        <mxCell id="Se4S-JmLy9C7secBmp55-91" value="λ" style="text;html=1;strokeColor=none;fillColor=none;align=center;verticalAlign=middle;whiteSpace=wrap;rounded=0;fontFamily=Times New Roman;fontSize=16;" parent="1" vertex="1">
          <mxGeometry x="98" y="510" width="60" height="30" as="geometry" />
        </mxCell>
        <mxCell id="Se4S-JmLy9C7secBmp55-92" value="λ" style="text;html=1;strokeColor=none;fillColor=none;align=center;verticalAlign=middle;whiteSpace=wrap;rounded=0;fontFamily=Times New Roman;fontSize=16;fontColor=#000000;" parent="1" vertex="1">
          <mxGeometry x="658" y="510" width="60" height="30" as="geometry" />
        </mxCell>
        <mxCell id="Se4S-JmLy9C7secBmp55-93" value="μ" style="text;html=1;strokeColor=none;fillColor=none;align=center;verticalAlign=middle;whiteSpace=wrap;rounded=0;fontFamily=Times New Roman;fontSize=16;fontColor=#000000;" parent="1" vertex="1">
          <mxGeometry x="499" y="510" width="60" height="30" as="geometry" />
        </mxCell>
        <mxCell id="Se4S-JmLy9C7secBmp55-94" value="μ" style="text;html=1;strokeColor=none;fillColor=none;align=center;verticalAlign=middle;whiteSpace=wrap;rounded=0;fontFamily=Times New Roman;fontSize=16;" parent="1" vertex="1">
          <mxGeometry x="249" y="510" width="60" height="30" as="geometry" />
        </mxCell>
        <mxCell id="Se4S-JmLy9C7secBmp55-98" value="η" style="text;html=1;strokeColor=none;fillColor=none;align=center;verticalAlign=middle;whiteSpace=wrap;rounded=0;fontFamily=Times New Roman;fontSize=16;" parent="1" vertex="1">
          <mxGeometry x="329" y="510" width="60" height="30" as="geometry" />
        </mxCell>
        <mxCell id="Se4S-JmLy9C7secBmp55-99" value="η" style="text;html=1;strokeColor=none;fillColor=none;align=center;verticalAlign=middle;whiteSpace=wrap;rounded=0;fontFamily=Times New Roman;fontSize=16;fontColor=#000000;" parent="1" vertex="1">
          <mxGeometry x="428" y="510" width="60" height="30" as="geometry" />
        </mxCell>
        <mxCell id="o6cxU4XFg6qUi4nE2hEN-1" value="" style="endArrow=classic;html=1;rounded=0;fontFamily=Times New Roman;fontSize=16;fontColor=#000000;strokeColor=#000000;exitX=0.856;exitY=-0.01;exitDx=0;exitDy=0;entryX=0;entryY=0.5;entryDx=0;entryDy=0;edgeStyle=orthogonalEdgeStyle;exitPerimeter=0;" edge="1" parent="1" source="qSjlCEyF0LNPJPu73GT9-17" target="Se4S-JmLy9C7secBmp55-42">
          <mxGeometry width="50" height="50" relative="1" as="geometry">
            <mxPoint x="389" y="540" as="sourcePoint" />
            <mxPoint x="439" y="490" as="targetPoint" />
            <Array as="points">
              <mxPoint x="331" y="365" />
            </Array>
          </mxGeometry>
        </mxCell>
        <mxCell id="o6cxU4XFg6qUi4nE2hEN-2" value="" style="endArrow=none;html=1;rounded=0;fontFamily=Times New Roman;fontSize=16;fontColor=#000000;strokeColor=#000000;endFill=0;exitX=1;exitY=0;exitDx=0;exitDy=0;entryX=0;entryY=0.25;entryDx=0;entryDy=0;edgeStyle=orthogonalEdgeStyle;" edge="1" parent="1" source="Se4S-JmLy9C7secBmp55-85" target="Se4S-JmLy9C7secBmp55-42">
          <mxGeometry width="50" height="50" relative="1" as="geometry">
            <mxPoint x="389" y="540" as="sourcePoint" />
            <mxPoint x="439" y="490" as="targetPoint" />
            <Array as="points">
              <mxPoint x="509" y="353" />
            </Array>
          </mxGeometry>
        </mxCell>
        <mxCell id="o6cxU4XFg6qUi4nE2hEN-3" value="" style="endArrow=none;html=1;rounded=0;fontFamily=Times New Roman;fontSize=16;fontColor=#000000;strokeColor=#000000;endFill=0;exitX=0;exitY=0;exitDx=0;exitDy=0;entryX=1;entryY=0.5;entryDx=0;entryDy=0;edgeStyle=orthogonalEdgeStyle;" edge="1" parent="1" source="Se4S-JmLy9C7secBmp55-84" target="Se4S-JmLy9C7secBmp55-42">
          <mxGeometry width="50" height="50" relative="1" as="geometry">
            <mxPoint x="519" y="410" as="sourcePoint" />
            <mxPoint x="568" y="362.5" as="targetPoint" />
          </mxGeometry>
        </mxCell>
        <mxCell id="o6cxU4XFg6qUi4nE2hEN-4" value="" style="endArrow=none;html=1;rounded=0;fontFamily=Times New Roman;fontSize=16;fontColor=#000000;strokeColor=#000000;endFill=0;edgeStyle=orthogonalEdgeStyle;" edge="1" parent="1">
          <mxGeometry width="50" height="50" relative="1" as="geometry">
            <mxPoint x="608" y="403" as="sourcePoint" />
            <mxPoint x="608" y="390" as="targetPoint" />
          </mxGeometry>
        </mxCell>
        <mxCell id="o6cxU4XFg6qUi4nE2hEN-5" value="" style="endArrow=classic;html=1;rounded=0;fontFamily=Times New Roman;fontSize=16;fontColor=#000000;strokeColor=#000000;entryX=1;entryY=0.25;entryDx=0;entryDy=0;exitX=0.75;exitY=0;exitDx=0;exitDy=0;edgeStyle=orthogonalEdgeStyle;" edge="1" parent="1" source="Se4S-JmLy9C7secBmp55-85" target="Se4S-JmLy9C7secBmp55-1">
          <mxGeometry width="50" height="50" relative="1" as="geometry">
            <mxPoint x="389" y="540" as="sourcePoint" />
            <mxPoint x="439" y="490" as="targetPoint" />
            <Array as="points">
              <mxPoint x="490" y="400" />
              <mxPoint x="490" y="353" />
            </Array>
          </mxGeometry>
        </mxCell>
        <mxCell id="o6cxU4XFg6qUi4nE2hEN-6" value="" style="endArrow=none;html=1;rounded=0;labelBackgroundColor=#000000;fontFamily=Times New Roman;fontSize=16;fontColor=#000000;strokeColor=#FFFFFF;" edge="1" parent="1">
          <mxGeometry width="50" height="50" relative="1" as="geometry">
            <mxPoint x="482" y="501" as="sourcePoint" />
            <mxPoint x="482" y="481" as="targetPoint" />
          </mxGeometry>
        </mxCell>
        <mxCell id="o6cxU4XFg6qUi4nE2hEN-7" value="" style="endArrow=none;html=1;rounded=0;labelBackgroundColor=#000000;fontFamily=Times New Roman;fontSize=16;fontColor=#000000;strokeColor=#FFFFFF;" edge="1" parent="1">
          <mxGeometry width="50" height="50" relative="1" as="geometry">
            <mxPoint x="508" y="503" as="sourcePoint" />
            <mxPoint x="508" y="483" as="targetPoint" />
          </mxGeometry>
        </mxCell>
        <mxCell id="o6cxU4XFg6qUi4nE2hEN-8" value="" style="endArrow=none;html=1;rounded=0;labelBackgroundColor=#000000;fontFamily=Times New Roman;fontSize=16;fontColor=#000000;strokeColor=#FFFFFF;exitX=0.5;exitY=1;exitDx=0;exitDy=0;" edge="1" parent="1" source="qSjlCEyF0LNPJPu73GT9-28">
          <mxGeometry width="50" height="50" relative="1" as="geometry">
            <mxPoint x="518" y="513" as="sourcePoint" />
            <mxPoint x="609" y="400" as="targetPoint" />
          </mxGeometry>
        </mxCell>
        <mxCell id="o6cxU4XFg6qUi4nE2hEN-9" value="" style="endArrow=none;html=1;rounded=0;labelBackgroundColor=#000000;fontFamily=Times New Roman;fontSize=16;fontColor=#000000;strokeColor=#FFFFFF;" edge="1" parent="1">
          <mxGeometry width="50" height="50" relative="1" as="geometry">
            <mxPoint x="707" y="500" as="sourcePoint" />
            <mxPoint x="707" y="480" as="targetPoint" />
          </mxGeometry>
        </mxCell>
        <mxCell id="o6cxU4XFg6qUi4nE2hEN-10" value="" style="endArrow=classic;html=1;rounded=0;labelBackgroundColor=#000000;fontFamily=Times New Roman;fontSize=16;fontColor=#000000;strokeColor=#FFFFFF;startArrow=none;startFill=0;endFill=1;" edge="1" parent="1">
          <mxGeometry width="50" height="50" relative="1" as="geometry">
            <mxPoint x="732" y="501" as="sourcePoint" />
            <mxPoint x="732" y="481" as="targetPoint" />
          </mxGeometry>
        </mxCell>
      </root>
    </mxGraphModel>
  </diagram>
</mxfile>
